<svg width="40" height="40" viewBox="0 0 40 40" fill="none" xmlns="http://www.w3.org/2000/svg">
<path fill-rule="evenodd" clip-rule="evenodd" d="M11 7.18C11 6.5283 11.5283 6 12.18 6H14V9H11V7.18ZM11 11H14V14H11V11ZM11 16H14V19H11V16ZM11 21H14V24H12.18C11.5283 24 11 23.4717 11 22.82V21ZM16 24V20V16H24V20V24H16ZM26 24V21H29V22.82C29 23.4717 28.4717 24 27.82 24H26ZM29 19H26V16H29V19ZM29 14H26V11H29V14ZM29 9H26V6H27.82C28.4717 6 29 6.5283 29 7.18V9ZM24 6V10V14H16V10V6H24ZM25 4H27.82C29.5763 4 31 5.42373 31 7.18V10V15V20V22.82C31 24.5763 29.5763 26 27.82 26H25H15H12.18C10.4237 26 9 24.5763 9 22.82V20V15V10V7.18C9 5.42373 10.4237 4 12.18 4H15H25Z" fill="white"/>
<path d="M17 32L20 35L23 32" stroke="white" stroke-width="2" stroke-linecap="round" stroke-linejoin="round"/>
<path d="M20 35V29" stroke="white" stroke-width="2" stroke-linecap="round" stroke-linejoin="round"/>
</svg>
